# xmcd
#
# Track frame offsets:
#	150
#	19791
#	37193
#	55706
#	85421
#	104696
#	121449
#	142200
#	166018
#	187463
#	204353
#	222280
#
# Disc length: 3414 seconds
#
# Revision: 1
# Processed by: cddbd v1.5.2PL0 Copyright (c) Steve Scherf et al.
# Submitted via: audiograbber 1.83.01
#
DISCID=b70d540c
DTITLE=Mark Knopfler - Kill To Get Crimson
DYEAR=1900
DGENRE=
TTITLE0=True Love Will Never Fade
TTITLE1=The Scaffolders Wife
TTITLE2=The Fizzy And The Still
TTITLE3=Hart Full Of Holes
TTITLE4=We Can Get Wild
TTITLE5=Secondary Waltz
TTITLE6=Punish The Monkey
TTITLE7=Let It All Go
TTITLE8=Behind With The Rent
TTITLE9=The Fish And The Bird
TTITLE10=Madame Geneva's
TTITLE11=In The Sky
EXTD=
EXTT0=
EXTT1=
EXTT2=
EXTT3=
EXTT4=
EXTT5=
EXTT6=
EXTT7=
EXTT8=
EXTT9=
EXTT10=
EXTT11=
PLAYORDER=
